<svg xmlns="http://www.w3.org/2000/svg" viewBox="0 0 32 32" width="32" height="32">
  <defs>
    <linearGradient id="grad1" x1="0%" y1="0%" x2="100%" y2="100%">
      <stop offset="0%" style="stop-color:#409EFF;stop-opacity:1" />
      <stop offset="100%" style="stop-color:#337ecc;stop-opacity:1" />
    </linearGradient>
  </defs>
  
  <!-- 外层齿轮 -->
  <path d="M16 2L18.5 6.5L23.5 5.5L25 10L29.5 11.5L28 16L29.5 20.5L25 22L23.5 26.5L18.5 25.5L16 30L13.5 25.5L8.5 26.5L7 22L2.5 20.5L4 16L2.5 11.5L7 10L8.5 5.5L13.5 6.5L16 2Z" 
        fill="url(#grad1)" 
        stroke="#2c3e50" 
        stroke-width="0.5"/>
  
  <!-- 内层圆形 -->
  <circle cx="16" cy="16" r="8" fill="#ffffff" stroke="#409EFF" stroke-width="1"/>
  
  <!-- 中心图标 - 服务器/配置图标 -->
  <rect x="12" y="12" width="8" height="1.5" fill="#409EFF" rx="0.5"/>
  <rect x="12" y="14.5" width="6" height="1.5" fill="#409EFF" rx="0.5"/>
  <rect x="12" y="17" width="7" height="1.5" fill="#409EFF" rx="0.5"/>
  <rect x="12" y="19.5" width="5" height="1.5" fill="#409EFF" rx="0.5"/>
  
  <!-- 小点装饰 -->
  <circle cx="21" cy="13" r="0.8" fill="#67C23A"/>
  <circle cx="21" cy="16" r="0.8" fill="#E6A23C"/>
  <circle cx="21" cy="19" r="0.8" fill="#F56C6C"/>
</svg> 